<?xml version="1.0" standalone="no"?>
<!DOCTYPE svg PUBLIC "-//W3C//DTD SVG 20010904//EN"
 "http://www.w3.org/TR/2001/REC-SVG-20010904/DTD/svg10.dtd">
<svg version="1.0" xmlns="http://www.w3.org/2000/svg"
 width="512.000000pt" height="512.000000pt" viewBox="0 0 512.000000 512.000000"
 preserveAspectRatio="xMidYMid meet">

<g transform="translate(0.000000,512.000000) scale(0.100000,-0.100000)"
fill="#000000" stroke="none">
<path d="M2320 5109 c-498 -49 -980 -245 -1365 -556 -130 -105 -340 -321 -436
-448 -267 -357 -435 -768 -501 -1230 -17 -118 -17 -512 0 -630 69 -487 257
-928 549 -1290 104 -129 321 -340 445 -433 365 -274 783 -444 1238 -504 123
-16 497 -16 620 0 282 37 550 117 794 235 272 132 462 265 675 472 232 226
374 421 517 710 126 255 203 510 246 810 16 116 16 501 0 625 -63 477 -256
932 -549 1295 -105 130 -321 340 -448 436 -356 267 -785 442 -1225 499 -117
15 -444 21 -560 9z m550 -1223 c230 -48 403 -145 516 -289 67 -86 103 -155
137 -263 55 -174 57 -215 57 -1161 l0 -869 -177 -27 c-222 -34 -406 -54 -638
-68 -511 -31 -873 73 -1056 303 -56 71 -123 215 -145 313 -25 109 -25 333 -1
425 24 89 86 213 141 282 219 273 767 404 1261 302 39 -8 79 -17 89 -20 15 -5
18 -3 12 12 -5 11 -14 69 -21 129 -16 137 -29 184 -67 258 -59 110 -174 185
-318 208 -164 25 -500 -9 -695 -71 -53 -17 -98 -30 -100 -28 -7 7 -66 441 -61
453 12 33 313 104 521 125 130 13 455 4 545 -14z"/>
<path d="M2456 2395 c-156 -26 -276 -97 -331 -196 -27 -49 -30 -63 -30 -149 0
-162 48 -251 168 -310 110 -54 184 -64 437 -62 124 2 252 6 285 10 l60 7 0
340 0 339 -60 13 c-92 21 -421 25 -529 8z"/>
</g>
</svg>
